<svg width="275" height="43" viewBox="0 0 275 43" fill="none" xmlns="http://www.w3.org/2000/svg">
<path d="M55.0398 17V3.90909H59.8338C60.7628 3.90909 61.532 4.0625 62.1413 4.36932C62.7507 4.67187 63.2067 5.0831 63.5092 5.60298C63.8118 6.11861 63.9631 6.70028 63.9631 7.34801C63.9631 7.89347 63.8629 8.35369 63.6626 8.72869C63.4624 9.09943 63.1939 9.39773 62.8572 9.62358C62.5249 9.84517 62.1584 10.0071 61.7578 10.1094V10.2372C62.1925 10.2585 62.6165 10.3991 63.0298 10.6591C63.4474 10.9148 63.7926 11.2791 64.0653 11.7521C64.3381 12.2251 64.4744 12.8004 64.4744 13.478C64.4744 14.147 64.3168 14.7479 64.0014 15.2805C63.6903 15.8089 63.2088 16.2287 62.5568 16.5398C61.9048 16.8466 61.0717 17 60.0575 17H55.0398ZM57.0149 15.3061H59.8658C60.8118 15.3061 61.4893 15.1229 61.8984 14.7564C62.3075 14.3899 62.5121 13.9318 62.5121 13.3821C62.5121 12.9687 62.4077 12.5895 62.1989 12.2443C61.9901 11.8991 61.6918 11.6243 61.304 11.4197C60.9205 11.2152 60.4645 11.1129 59.9361 11.1129H57.0149V15.3061ZM57.0149 9.57244H59.6612C60.1044 9.57244 60.5028 9.48722 60.8565 9.31676C61.2145 9.14631 61.4979 8.90767 61.7067 8.60085C61.9197 8.28977 62.0263 7.9233 62.0263 7.50142C62.0263 6.96023 61.8366 6.50639 61.4574 6.13991C61.0781 5.77344 60.4964 5.5902 59.7124 5.5902H57.0149V9.57244ZM72.1737 14.6349L75.3441 7.18182H76.9933L72.8832 17H71.4641L67.4371 7.18182H69.0671L72.1737 14.6349ZM68.5366 7.18182V17H66.6637V7.18182H68.5366ZM75.8619 17V7.18182H77.7219V17H75.8619ZM84.5007 17.1982C83.5334 17.1982 82.7003 16.9915 82.0014 16.5781C81.3068 16.1605 80.7699 15.5746 80.3906 14.8203C80.0156 14.0618 79.8281 13.1733 79.8281 12.1548C79.8281 11.1491 80.0156 10.2628 80.3906 9.49574C80.7699 8.72869 81.2983 8.12997 81.9759 7.69957C82.6577 7.26918 83.4545 7.05398 84.3665 7.05398C84.9205 7.05398 85.4574 7.1456 85.9773 7.32884C86.4972 7.51207 86.9638 7.79972 87.3771 8.19176C87.7905 8.58381 88.1165 9.09304 88.3551 9.71946C88.5938 10.3416 88.7131 11.098 88.7131 11.9886V12.6662H80.9084V11.2344H86.8402C86.8402 10.7315 86.7379 10.2862 86.5334 9.89844C86.3288 9.50639 86.0412 9.19744 85.6705 8.97159C85.304 8.74574 84.8736 8.63281 84.3793 8.63281C83.8423 8.63281 83.3736 8.76491 82.973 9.02912C82.5767 9.28906 82.2699 9.62997 82.0526 10.0518C81.8395 10.4695 81.733 10.9233 81.733 11.4134V12.532C81.733 13.1882 81.848 13.7464 82.0781 14.2067C82.3125 14.6669 82.6385 15.0185 83.0561 15.2614C83.4737 15.5 83.9616 15.6193 84.5199 15.6193C84.8821 15.6193 85.2124 15.5682 85.5107 15.4659C85.8089 15.3594 86.0668 15.2017 86.2841 14.9929C86.5014 14.7841 86.6676 14.5263 86.7827 14.2195L88.5916 14.5455C88.4467 15.0781 88.1868 15.5447 87.8118 15.9453C87.4411 16.3416 86.9744 16.6506 86.4119 16.8722C85.8537 17.0895 85.2166 17.1982 84.5007 17.1982ZM94.9693 17.1982C94.019 17.1982 93.2008 16.983 92.5147 16.5526C91.8329 16.1179 91.3088 15.5192 90.9423 14.7564C90.5758 13.9936 90.3926 13.12 90.3926 12.1357C90.3926 11.1385 90.5801 10.2585 90.9551 9.49574C91.3301 8.72869 91.8585 8.12997 92.5403 7.69957C93.2221 7.26918 94.0254 7.05398 94.9501 7.05398C95.6958 7.05398 96.3606 7.19247 96.9444 7.46946C97.5282 7.74219 97.9991 8.12571 98.3571 8.62003C98.7193 9.11435 98.9345 9.69176 99.0027 10.3523H97.1426C97.0403 9.89205 96.8059 9.49574 96.4395 9.16335C96.0772 8.83097 95.5914 8.66477 94.9821 8.66477C94.4494 8.66477 93.9828 8.8054 93.5822 9.08665C93.1859 9.36364 92.877 9.75994 92.6554 10.2756C92.4338 10.7869 92.323 11.392 92.323 12.0909C92.323 12.8068 92.4316 13.4247 92.649 13.9446C92.8663 14.4645 93.1731 14.8672 93.5694 15.1527C93.97 15.4382 94.4409 15.581 94.9821 15.581C95.3443 15.581 95.6724 15.5149 95.9664 15.3828C96.2647 15.2464 96.514 15.0526 96.7143 14.8011C96.9189 14.5497 97.0616 14.2472 97.1426 13.8935H99.0027C98.9345 14.5284 98.7278 15.0952 98.3826 15.5938C98.0375 16.0923 97.5751 16.4844 96.9956 16.7699C96.4203 17.0554 95.7449 17.1982 94.9693 17.1982ZM100.303 8.83097V7.18182H108.588V8.83097H105.385V17H103.519V8.83097H100.303ZM114.384 17.1982C113.416 17.1982 112.583 16.9915 111.884 16.5781C111.19 16.1605 110.653 15.5746 110.273 14.8203C109.898 14.0618 109.711 13.1733 109.711 12.1548C109.711 11.1491 109.898 10.2628 110.273 9.49574C110.653 8.72869 111.181 8.12997 111.859 7.69957C112.54 7.26918 113.337 7.05398 114.249 7.05398C114.803 7.05398 115.34 7.1456 115.86 7.32884C116.38 7.51207 116.847 7.79972 117.26 8.19176C117.673 8.58381 117.999 9.09304 118.238 9.71946C118.477 10.3416 118.596 11.098 118.596 11.9886V12.6662H110.791V11.2344H116.723C116.723 10.7315 116.621 10.2862 116.416 9.89844C116.212 9.50639 115.924 9.19744 115.553 8.97159C115.187 8.74574 114.756 8.63281 114.262 8.63281C113.725 8.63281 113.256 8.76491 112.856 9.02912C112.46 9.28906 112.153 9.62997 111.935 10.0518C111.722 10.4695 111.616 10.9233 111.616 11.4134V12.532C111.616 13.1882 111.731 13.7464 111.961 14.2067C112.195 14.6669 112.521 15.0185 112.939 15.2614C113.357 15.5 113.844 15.6193 114.403 15.6193C114.765 15.6193 115.095 15.5682 115.393 15.4659C115.692 15.3594 115.95 15.2017 116.167 14.9929C116.384 14.7841 116.55 14.5263 116.665 14.2195L118.474 14.5455C118.33 15.0781 118.07 15.5447 117.695 15.9453C117.324 16.3416 116.857 16.6506 116.295 16.8722C115.737 17.0895 115.099 17.1982 114.384 17.1982ZM129.616 17.1982C128.665 17.1982 127.847 16.983 127.161 16.5526C126.479 16.1179 125.955 15.5192 125.589 14.7564C125.222 13.9936 125.039 13.12 125.039 12.1357C125.039 11.1385 125.227 10.2585 125.602 9.49574C125.977 8.72869 126.505 8.12997 127.187 7.69957C127.869 7.26918 128.672 7.05398 129.597 7.05398C130.342 7.05398 131.007 7.19247 131.591 7.46946C132.175 7.74219 132.646 8.12571 133.004 8.62003C133.366 9.11435 133.581 9.69176 133.649 10.3523H131.789C131.687 9.89205 131.452 9.49574 131.086 9.16335C130.724 8.83097 130.238 8.66477 129.629 8.66477C129.096 8.66477 128.629 8.8054 128.229 9.08665C127.832 9.36364 127.523 9.75994 127.302 10.2756C127.08 10.7869 126.969 11.392 126.969 12.0909C126.969 12.8068 127.078 13.4247 127.295 13.9446C127.513 14.4645 127.82 14.8672 128.216 15.1527C128.616 15.4382 129.087 15.581 129.629 15.581C129.991 15.581 130.319 15.5149 130.613 15.3828C130.911 15.2464 131.161 15.0526 131.361 14.8011C131.565 14.5497 131.708 14.2472 131.789 13.8935H133.649C133.581 14.5284 133.374 15.0952 133.029 15.5938C132.684 16.0923 132.222 16.4844 131.642 16.7699C131.067 17.0554 130.391 17.1982 129.616 17.1982ZM188.119 36.6349L191.289 29.1818H192.939L188.828 39H187.409L183.382 29.1818H185.012L188.119 36.6349ZM184.482 29.1818V39H182.609V29.1818H184.482ZM191.807 39V29.1818H193.667V39H191.807ZM197.653 32.5568H200.504C201.705 32.5568 202.63 32.8551 203.278 33.4517C203.925 34.0483 204.249 34.8175 204.249 35.7592C204.249 36.3729 204.104 36.9247 203.815 37.4148C203.525 37.9048 203.101 38.2926 202.543 38.5781C201.984 38.8594 201.305 39 200.504 39H196.214V29.1818H198.087V37.3509H200.504C201.053 37.3509 201.505 37.2081 201.859 36.9226C202.212 36.6328 202.389 36.2642 202.389 35.8168C202.389 35.3437 202.212 34.9581 201.859 34.6598C201.505 34.3572 201.053 34.206 200.504 34.206H197.653V32.5568ZM205.643 39V29.1818H207.554V39H205.643ZM213.924 41.8317V37.3445H214.723C214.927 37.157 215.1 36.9332 215.24 36.6733C215.385 36.4134 215.507 36.1044 215.605 35.7464C215.707 35.3885 215.792 34.9709 215.86 34.4936C215.929 34.0121 215.988 33.4624 216.039 32.8445L216.346 29.1818H223.02V37.3445H224.528V41.8317H222.662V39H215.816V41.8317H213.924ZM216.768 37.3445H221.153V30.8182H218.059L217.855 32.8445C217.757 33.8757 217.633 34.7706 217.484 35.5291C217.335 36.2834 217.096 36.8885 216.768 37.3445ZM229.253 39.2173C228.631 39.2173 228.069 39.1023 227.566 38.8722C227.063 38.6378 226.665 38.299 226.371 37.8558C226.081 37.4126 225.936 36.8693 225.936 36.2259C225.936 35.6719 226.042 35.2159 226.255 34.858C226.469 34.5 226.756 34.2166 227.118 34.0078C227.481 33.799 227.885 33.6413 228.333 33.5348C228.78 33.4283 229.236 33.3473 229.701 33.2919C230.289 33.2237 230.766 33.1683 231.133 33.1257C231.499 33.0788 231.765 33.0043 231.932 32.902C232.098 32.7997 232.181 32.6335 232.181 32.4034V32.3587C232.181 31.8004 232.023 31.3679 231.708 31.0611C231.397 30.7543 230.932 30.6009 230.314 30.6009C229.671 30.6009 229.164 30.7436 228.793 31.0291C228.427 31.3104 228.173 31.6236 228.032 31.9688L226.236 31.5597C226.449 30.9631 226.76 30.4815 227.17 30.1151C227.583 29.7443 228.058 29.4759 228.595 29.3097C229.132 29.1392 229.697 29.054 230.289 29.054C230.681 29.054 231.096 29.1009 231.535 29.1946C231.979 29.2841 232.392 29.4503 232.775 29.6932C233.163 29.9361 233.481 30.2834 233.728 30.7351C233.975 31.1825 234.099 31.7642 234.099 32.4801V39H232.232V37.6577H232.155C232.032 37.9048 231.846 38.1477 231.599 38.3864C231.352 38.625 231.035 38.8232 230.647 38.9808C230.259 39.1385 229.795 39.2173 229.253 39.2173ZM229.669 37.6832C230.197 37.6832 230.649 37.5788 231.024 37.37C231.403 37.1612 231.691 36.8885 231.887 36.5518C232.087 36.2109 232.187 35.8466 232.187 35.4588V34.1932C232.119 34.2614 231.987 34.3253 231.791 34.3849C231.599 34.4403 231.38 34.4893 231.133 34.532C230.885 34.5703 230.645 34.6065 230.41 34.6406C230.176 34.6705 229.98 34.696 229.822 34.7173C229.452 34.7642 229.113 34.843 228.806 34.9538C228.503 35.0646 228.26 35.2244 228.077 35.4332C227.898 35.6378 227.809 35.9105 227.809 36.2514C227.809 36.7244 227.983 37.0824 228.333 37.3253C228.682 37.5639 229.128 37.6832 229.669 37.6832ZM236.644 42.6818V29.1818H238.511V30.7734H238.67C238.781 30.5689 238.941 30.3324 239.15 30.0639C239.359 29.7955 239.648 29.5611 240.019 29.3608C240.39 29.1562 240.88 29.054 241.489 29.054C242.282 29.054 242.989 29.2543 243.611 29.6548C244.234 30.0554 244.722 30.6328 245.075 31.3871C245.433 32.1413 245.612 33.049 245.612 34.1101C245.612 35.1712 245.435 36.081 245.082 36.8395C244.728 37.5937 244.242 38.1754 243.624 38.5845C243.006 38.9893 242.301 39.1918 241.509 39.1918C240.912 39.1918 240.424 39.0916 240.045 38.8913C239.67 38.6911 239.376 38.4567 239.163 38.1882C238.95 37.9197 238.785 37.6811 238.67 37.4723H238.555V42.6818H236.644ZM238.517 34.0909C238.517 34.7812 238.617 35.3864 238.817 35.9062C239.018 36.4261 239.308 36.8331 239.687 37.1271C240.066 37.4169 240.531 37.5618 241.08 37.5618C241.651 37.5618 242.129 37.4105 242.512 37.108C242.896 36.8011 243.185 36.3857 243.381 35.8615C243.582 35.3374 243.682 34.7472 243.682 34.0909C243.682 33.4432 243.584 32.8615 243.388 32.3459C243.196 31.8303 242.906 31.4233 242.518 31.125C242.135 30.8267 241.656 30.6776 241.08 30.6776C240.526 30.6776 240.058 30.8203 239.674 31.1058C239.295 31.3913 239.007 31.7898 238.811 32.3011C238.615 32.8125 238.517 33.4091 238.517 34.0909ZM249.626 36.3217L253.954 29.1818H256.012V39H254.139V31.8537L249.831 39H247.754V29.1818H249.626V36.3217ZM264.092 36.6349L267.262 29.1818H268.911L264.801 39H263.382L259.355 29.1818H260.985L264.092 36.6349ZM260.455 29.1818V39H258.582V29.1818H260.455ZM267.78 39V29.1818H269.64V39H267.78ZM273.446 39.1214C273.097 39.1214 272.797 38.9979 272.545 38.7507C272.294 38.4993 272.168 38.1967 272.168 37.843C272.168 37.4936 272.294 37.1953 272.545 36.9482C272.797 36.6967 273.097 36.571 273.446 36.571C273.796 36.571 274.096 36.6967 274.348 36.9482C274.599 37.1953 274.725 37.4936 274.725 37.843C274.725 38.0774 274.665 38.2926 274.546 38.4886C274.431 38.6804 274.277 38.8338 274.086 38.9489C273.894 39.0639 273.681 39.1214 273.446 39.1214ZM273.446 31.9751C273.097 31.9751 272.797 31.8494 272.545 31.598C272.294 31.3466 272.168 31.0462 272.168 30.6967C272.168 30.3473 272.294 30.049 272.545 29.8018C272.797 29.5504 273.097 29.4247 273.446 29.4247C273.796 29.4247 274.096 29.5504 274.348 29.8018C274.599 30.049 274.725 30.3473 274.725 30.6967C274.725 30.9311 274.665 31.1463 274.546 31.3423C274.431 31.5341 274.277 31.6875 274.086 31.8026C273.894 31.9176 273.681 31.9751 273.446 31.9751Z" fill="#E4E5EA"/>
<path d="M140.31 17V3.90909H148.996V6.19105H143.077V8.74787H145.206C146.241 8.74787 147.134 8.91619 147.884 9.25284C148.638 9.58523 149.22 10.0561 149.629 10.6655C150.038 11.2749 150.243 11.9929 150.243 12.8196C150.243 13.642 150.038 14.3686 149.629 14.9993C149.22 15.6257 148.638 16.1158 147.884 16.4695C147.134 16.8232 146.241 17 145.206 17H140.31ZM143.077 14.7756H145.206C145.7 14.7756 146.118 14.6861 146.459 14.5071C146.8 14.3239 147.058 14.0831 147.232 13.7848C147.411 13.4822 147.501 13.152 147.501 12.794C147.501 12.2741 147.303 11.8352 146.906 11.4773C146.514 11.1151 145.947 10.9339 145.206 10.9339H143.077V14.7756ZM152.934 17V3.90909H161.755V6.19105H155.702V9.31037H161.301V11.5923H155.702V14.718H161.781V17H152.934ZM176.406 8.49219H173.606C173.555 8.12997 173.451 7.80824 173.293 7.52699C173.136 7.24148 172.933 6.99858 172.686 6.7983C172.439 6.59801 172.153 6.4446 171.829 6.33807C171.51 6.23153 171.163 6.17827 170.788 6.17827C170.11 6.17827 169.52 6.34659 169.017 6.68324C168.514 7.01562 168.124 7.50142 167.847 8.14062C167.57 8.77557 167.432 9.54687 167.432 10.4545C167.432 11.3878 167.57 12.1719 167.847 12.8068C168.128 13.4418 168.521 13.9212 169.023 14.245C169.526 14.5689 170.108 14.7308 170.768 14.7308C171.139 14.7308 171.482 14.6818 171.798 14.5838C172.117 14.4858 172.401 14.343 172.648 14.1555C172.895 13.9638 173.099 13.7315 173.261 13.4588C173.427 13.1861 173.543 12.875 173.606 12.5256L176.406 12.5384C176.334 13.1392 176.153 13.7188 175.863 14.277C175.577 14.831 175.192 15.3274 174.706 15.7663C174.224 16.201 173.649 16.5462 172.98 16.8018C172.315 17.0533 171.563 17.179 170.724 17.179C169.556 17.179 168.512 16.9148 167.592 16.3864C166.675 15.858 165.951 15.093 165.418 14.0916C164.89 13.0902 164.626 11.8778 164.626 10.4545C164.626 9.02699 164.894 7.8125 165.431 6.81108C165.968 5.80966 166.697 5.04687 167.617 4.52273C168.538 3.99432 169.573 3.73011 170.724 3.73011C171.482 3.73011 172.185 3.83665 172.833 4.04972C173.485 4.26278 174.062 4.57386 174.565 4.98295C175.068 5.38778 175.477 5.88423 175.793 6.4723C176.112 7.06037 176.317 7.73366 176.406 8.49219ZM190.419 3.90909V17H187.684V6.15909H182.391V17H179.655V3.90909H190.419ZM193.245 17V14.7756L193.616 14.7436C194.093 14.7053 194.479 14.5241 194.773 14.2003C195.067 13.8722 195.286 13.3501 195.431 12.6342C195.58 11.9141 195.676 10.9467 195.719 9.73224L195.936 3.90909H204.821V17H202.13V6.12713H198.506L198.301 10.6847C198.233 12.1506 198.058 13.348 197.777 14.277C197.5 15.206 197.057 15.892 196.447 16.3352C195.842 16.7784 195.014 17 193.961 17H193.245ZM210.259 17H207.294L211.813 3.90909H215.379L219.892 17H216.926L213.647 6.90057H213.545L210.259 17ZM210.074 11.8544H217.08V14.0149H210.074V11.8544ZM220.27 6.19105V3.90909H231.021V6.19105H227.013V17H224.277V6.19105H220.27ZM233.692 17V3.90909H236.459V9.31037H242.078V3.90909H244.839V17H242.078V11.5923H236.459V17H233.692ZM260.051 10.4545C260.051 11.8821 259.781 13.0966 259.239 14.098C258.702 15.0994 257.97 15.8643 257.041 16.3928C256.116 16.9169 255.076 17.179 253.921 17.179C252.758 17.179 251.714 16.9148 250.789 16.3864C249.864 15.858 249.134 15.093 248.597 14.0916C248.06 13.0902 247.791 11.8778 247.791 10.4545C247.791 9.02699 248.06 7.8125 248.597 6.81108C249.134 5.80966 249.864 5.04687 250.789 4.52273C251.714 3.99432 252.758 3.73011 253.921 3.73011C255.076 3.73011 256.116 3.99432 257.041 4.52273C257.97 5.04687 258.702 5.80966 259.239 6.81108C259.781 7.8125 260.051 9.02699 260.051 10.4545ZM257.245 10.4545C257.245 9.52983 257.107 8.75 256.83 8.11506C256.557 7.48011 256.171 6.99858 255.673 6.67045C255.174 6.34233 254.59 6.17827 253.921 6.17827C253.252 6.17827 252.668 6.34233 252.17 6.67045C251.671 6.99858 251.283 7.48011 251.006 8.11506C250.734 8.75 250.597 9.52983 250.597 10.4545C250.597 11.3793 250.734 12.1591 251.006 12.794C251.283 13.429 251.671 13.9105 252.17 14.2386C252.668 14.5668 253.252 14.7308 253.921 14.7308C254.59 14.7308 255.174 14.5668 255.673 14.2386C256.171 13.9105 256.557 13.429 256.83 12.794C257.107 12.1591 257.245 11.3793 257.245 10.4545ZM263.001 3.90909H265.763V12.142H265.871L271.528 3.90909H273.951V17H271.183V8.76065H271.087L265.398 17H263.001V3.90909ZM269.751 0.482954H271.65C271.646 1.25852 271.358 1.88281 270.787 2.35582C270.22 2.82883 269.453 3.06534 268.486 3.06534C267.514 3.06534 266.745 2.82883 266.178 2.35582C265.612 1.88281 265.328 1.25852 265.328 0.482954H267.214C267.21 0.776988 267.303 1.04119 267.495 1.27557C267.691 1.50994 268.021 1.62713 268.486 1.62713C268.938 1.62713 269.261 1.51207 269.457 1.28196C269.653 1.05185 269.751 0.78551 269.751 0.482954ZM8.50791 39L4.30194 33.4197H3.35592V39H0.588162V25.9091H3.35592V31.1378H3.91203L8.25862 25.9091H11.7039L6.59669 31.9815L11.9404 39H8.50791ZM25.5239 32.4545C25.5239 33.8821 25.2533 35.0966 24.7121 36.098C24.1751 37.0994 23.4422 37.8643 22.5132 38.3928C21.5885 38.9169 20.5487 39.179 19.3939 39.179C18.2305 39.179 17.1865 38.9148 16.2618 38.3864C15.3371 37.858 14.6062 37.093 14.0693 36.0916C13.5324 35.0902 13.2639 33.8778 13.2639 32.4545C13.2639 31.027 13.5324 29.8125 14.0693 28.8111C14.6062 27.8097 15.3371 27.0469 16.2618 26.5227C17.1865 25.9943 18.2305 25.7301 19.3939 25.7301C20.5487 25.7301 21.5885 25.9943 22.5132 26.5227C23.4422 27.0469 24.1751 27.8097 24.7121 28.8111C25.2533 29.8125 25.5239 31.027 25.5239 32.4545ZM22.7177 32.4545C22.7177 31.5298 22.5792 30.75 22.3023 30.1151C22.0295 29.4801 21.6439 28.9986 21.1453 28.6705C20.6467 28.3423 20.0629 28.1783 19.3939 28.1783C18.7248 28.1783 18.141 28.3423 17.6425 28.6705C17.1439 28.9986 16.7561 29.4801 16.4791 30.1151C16.2064 30.75 16.07 31.5298 16.07 32.4545C16.07 33.3793 16.2064 34.1591 16.4791 34.794C16.7561 35.429 17.1439 35.9105 17.6425 36.2386C18.141 36.5668 18.7248 36.7308 19.3939 36.7308C20.0629 36.7308 20.6467 36.5668 21.1453 36.2386C21.6439 35.9105 22.0295 35.429 22.3023 34.794C22.5792 34.1591 22.7177 33.3793 22.7177 32.4545ZM28.4741 39V25.9091H31.2419V31.3104H36.8605V25.9091H39.6218V39H36.8605V33.5923H31.2419V39H28.4741ZM54.3542 30.4922H51.5545C51.5034 30.13 51.399 29.8082 51.2413 29.527C51.0836 29.2415 50.8812 28.9986 50.634 28.7983C50.3869 28.598 50.1014 28.4446 49.7775 28.3381C49.4579 28.2315 49.1106 28.1783 48.7356 28.1783C48.058 28.1783 47.4679 28.3466 46.965 28.6832C46.4622 29.0156 46.0723 29.5014 45.7953 30.1406C45.5183 30.7756 45.3798 31.5469 45.3798 32.4545C45.3798 33.3878 45.5183 34.1719 45.7953 34.8068C46.0765 35.4418 46.4686 35.9212 46.9714 36.245C47.4742 36.5689 48.0559 36.7308 48.7164 36.7308C49.0872 36.7308 49.4302 36.6818 49.7455 36.5838C50.0652 36.4858 50.3485 36.343 50.5957 36.1555C50.8429 35.9638 51.0474 35.7315 51.2093 35.4588C51.3755 35.1861 51.4906 34.875 51.5545 34.5256L54.3542 34.5384C54.2818 35.1392 54.1007 35.7188 53.8109 36.277C53.5254 36.831 53.1397 37.3274 52.6539 37.7663C52.1724 38.201 51.5971 38.5462 50.9281 38.8018C50.2633 39.0533 49.5112 39.179 48.6717 39.179C47.5041 39.179 46.46 38.9148 45.5396 38.3864C44.6234 37.858 43.899 37.093 43.3663 36.0916C42.8379 35.0902 42.5737 33.8778 42.5737 32.4545C42.5737 31.027 42.8421 29.8125 43.3791 28.8111C43.916 27.8097 44.6447 27.0469 45.5652 26.5227C46.4856 25.9943 47.5211 25.7301 48.6717 25.7301C49.4302 25.7301 50.1333 25.8366 50.7811 26.0497C51.433 26.2628 52.0105 26.5739 52.5133 26.983C53.0161 27.3878 53.4252 27.8842 53.7406 28.4723C54.0602 29.0604 54.2647 29.7337 54.3542 30.4922ZM58.6516 39.179V36.929H59.3611C59.7148 36.929 60.0003 36.8864 60.2176 36.8011C60.435 36.7116 60.6076 36.5817 60.7354 36.4112C60.8675 36.2365 60.9783 36.0192 61.0678 35.7592L61.2276 35.331L56.4719 25.9091H59.3355L62.4165 32.3523L64.9925 25.9091H67.8178L63.305 36.4304C63.0877 36.9162 62.8299 37.3679 62.5316 37.7855C62.2375 38.2031 61.8604 38.5398 61.4002 38.7955C60.9399 39.0511 60.3519 39.179 59.636 39.179H58.6516ZM69.5056 39V36.7756L69.8763 36.7436C70.3536 36.7053 70.7393 36.5241 71.0333 36.2003C71.3273 35.8722 71.5468 35.3501 71.6917 34.6342C71.8408 33.9141 71.9367 32.9467 71.9793 31.7322L72.1966 25.9091H81.0816V39H78.3905V28.1271H74.7663L74.5617 32.6847C74.4935 34.1506 74.3188 35.348 74.0376 36.277C73.7606 37.206 73.3174 37.892 72.708 38.3352C72.1029 38.7784 71.2741 39 70.2215 39H69.5056ZM86.0853 30.7479H89.2046C90.2444 30.7479 91.1393 30.9162 91.8893 31.2528C92.6435 31.5852 93.2252 32.0561 93.6343 32.6655C94.0434 33.2749 94.2458 33.9929 94.2415 34.8196C94.2458 35.642 94.0434 36.3686 93.6343 36.9993C93.2252 37.6257 92.6435 38.1158 91.8893 38.4695C91.1393 38.8232 90.2444 39 89.2046 39H84.3147V25.9091H87.0761V36.7756H89.2046C89.7032 36.7756 90.1229 36.6861 90.4638 36.5071C90.8047 36.3239 91.0626 36.0831 91.2373 35.7848C91.4163 35.4822 91.5036 35.152 91.4994 34.794C91.5036 34.2741 91.3076 33.8352 90.9113 33.4773C90.5192 33.1151 89.9503 32.9339 89.2046 32.9339H86.0853V30.7479ZM96.1259 28.1911V25.9091H106.877V28.1911H102.87V39H100.134V28.1911H96.1259ZM110.205 39H107.239L111.758 25.9091H115.325L119.838 39H116.872L113.592 28.9006H113.49L110.205 39ZM110.019 33.8544H117.025V36.0149H110.019V33.8544ZM134.925 36.7884L134.765 42.0938H132.131V39H131.211V36.7884H134.925ZM122.313 39V25.9091H124.972V36.7756H130.418V25.9091H133.109V39H122.313ZM137.504 25.9091H140.266V34.142H140.374L146.031 25.9091H148.454V39H145.686V30.7607H145.59L139.901 39H137.504V25.9091ZM151.641 39V25.9091H160.462V28.1911H154.408V31.3104H160.008V33.5923H154.408V36.718H160.487V39H151.641ZM163.562 25.9091H166.323V34.142H166.432L172.089 25.9091H174.512V39H171.744V30.7607H171.648L165.959 39H163.562V25.9091ZM170.312 22.483H172.21C172.206 23.2585 171.919 23.8828 171.348 24.3558C170.781 24.8288 170.014 25.0653 169.046 25.0653C168.075 25.0653 167.306 24.8288 166.739 24.3558C166.172 23.8828 165.889 23.2585 165.889 22.483H167.774C167.77 22.777 167.864 23.0412 168.056 23.2756C168.252 23.5099 168.582 23.6271 169.046 23.6271C169.498 23.6271 169.822 23.5121 170.018 23.282C170.214 23.0518 170.312 22.7855 170.312 22.483Z" fill="url(#paint0_linear_0_23)"/>
<defs>
<linearGradient id="paint0_linear_0_23" x1="-15" y1="22.2944" x2="276" y2="22.2944" gradientUnits="userSpaceOnUse">
<stop offset="0.369906" stop-color="#FCB045"/>
<stop offset="1" stop-color="#FD1D1D"/>
</linearGradient>
</defs>
</svg>
